<svg width="228" height="228" viewBox="0 0 228 228" fill="none" xmlns="http://www.w3.org/2000/svg">
<path d="M215.286 61.6832C203.821 39.4853 185.38 21.6687 162.801 10.9735C140.222 0.27829 114.754 -2.70321 90.3153 2.48752C65.8763 7.67825 43.8192 20.7537 27.5363 39.7031C11.2534 58.6524 1.64654 82.4261 0.193073 107.368C-1.26039 132.31 5.52008 157.039 19.4917 177.751C33.4633 198.463 53.8523 214.012 77.523 222.007C101.194 230.001 126.835 229.998 150.504 221.998C174.172 213.997 194.558 198.443 208.524 177.728L170.714 152.237C162.335 164.666 150.103 173.998 135.902 178.799C121.701 183.599 106.316 183.601 92.1138 178.804C77.9114 174.007 65.678 164.678 57.295 152.251C48.912 139.823 44.8438 124.986 45.7158 110.021C46.5879 95.0557 52.3521 80.7914 62.1218 69.4218C71.8915 58.0522 85.1258 50.2069 99.7892 47.0925C114.453 43.9781 129.733 45.767 143.281 52.1841C156.828 58.6012 167.892 69.2912 174.772 82.6099L215.286 61.6832Z" fill="#66E0FF"/>
<path d="M215.288 61.6859C206.943 45.529 194.854 31.6028 180.03 21.07C165.207 10.5372 148.078 3.7034 130.076 1.13912C112.073 -1.42516 93.7174 0.354514 76.5424 6.32955C59.3674 12.3046 43.8709 22.3016 31.3468 35.486C18.8227 48.6704 9.63428 64.6596 4.54874 82.1186C-0.536802 99.5777 -1.37193 118 2.11309 135.848C5.5981 153.695 13.3021 170.45 24.582 184.714C35.8618 198.977 50.3902 210.335 66.9541 217.84L85.7725 176.304C75.8341 171.801 67.1171 164.986 60.3492 156.428C53.5813 147.87 48.9589 137.817 46.8679 127.109C44.7768 116.4 45.2779 105.347 48.3292 94.8712C51.3806 84.3957 56.8936 74.8022 64.4081 66.8916C71.9226 58.981 81.2204 52.9828 91.5254 49.3977C101.83 45.8127 112.844 44.7449 123.645 46.2835C134.447 47.822 144.724 51.9223 153.618 58.242C162.512 64.5617 169.766 72.9174 174.773 82.6115L215.288 61.6859Z" fill="#00CCFF"/>
</svg>
