<svg width="138" height="220" viewBox="0 0 138 220" fill="none" xmlns="http://www.w3.org/2000/svg">
<rect x="82.3555" y="0.935547" width="55.6451" height="149.129" fill="#00CCFF"/>
<path d="M25.5968 96.645C16.4492 103.909 9.79069 112.759 5.30088 123.542C0.811063 134.326 -0.867739 146.072 0.421775 157.682C1.71129 169.291 5.92691 180.383 12.6736 189.918C19.4203 199.454 28.4773 207.12 38.9959 212.199C49.5145 217.279 61.1503 219.604 72.8132 218.959C84.4761 218.313 95.7842 214.718 105.678 208.509C115.572 202.299 123.727 193.68 129.381 183.459C135.034 173.237 138 161.748 138 150.067L82.3584 150.065C82.3583 152.326 81.7841 154.551 80.6897 156.53C79.5952 158.508 78.0163 160.177 76.1009 161.379C74.1854 162.581 71.9962 163.277 69.7383 163.402C67.4803 163.527 58.7944 164.403 56.7581 163.419V140.048H25.5968V96.645Z" fill="#00CCFF"/>
</svg>
