<svg width="219" height="219" viewBox="0 0 219 219" fill="none" xmlns="http://www.w3.org/2000/svg">
<path d="M206.788 59.2483C195.775 37.9267 178.063 20.8134 156.375 10.5403C134.687 0.267304 110.225 -2.59651 86.7502 2.38933C63.2759 7.37516 42.0895 19.9345 26.4494 38.1359C10.8092 56.3372 1.58154 79.1725 0.185452 103.13C-1.21064 127.087 5.30218 150.84 18.7223 170.734C32.1424 190.629 51.7266 205.564 74.4629 213.243C97.1992 220.922 121.828 220.919 144.563 213.235C167.297 205.55 186.878 190.61 200.293 170.712L163.976 146.227C155.927 158.166 144.178 167.13 130.538 171.741C116.897 176.351 102.119 176.353 88.4777 171.746C74.8359 167.139 63.0854 158.178 55.0334 146.241C46.9813 134.304 43.0736 120.052 43.9113 105.678C44.7489 91.3035 50.2855 77.6023 59.6696 66.6815C69.0537 55.7607 81.7655 48.2251 95.8501 45.2336C109.935 42.2421 124.612 43.9604 137.625 50.1242C150.638 56.288 161.265 66.556 167.873 79.349L206.788 59.2483Z" fill="#66E0FF"/>
<path d="M141.378 214.257C158.088 209.172 173.34 200.163 185.859 187.983C198.378 175.803 207.802 160.804 213.343 144.24C218.885 127.675 220.383 110.025 217.713 92.7637C215.044 75.5021 208.283 59.1296 197.997 45.013C187.71 30.8965 174.196 19.4456 158.582 11.6163C142.968 3.78704 125.708 -0.193431 108.242 0.00722562C90.7764 0.207882 73.6121 4.58384 58.1822 12.7698C42.7524 20.9557 29.5046 32.7141 19.545 47.0632L55.527 72.0379C61.5028 63.4284 69.4514 56.3734 78.7093 51.4619C87.9673 46.5503 98.2658 43.9247 108.745 43.8043C119.225 43.6839 129.581 46.0722 138.949 50.7698C148.317 55.4674 156.426 62.3379 162.598 70.8078C168.77 79.2777 172.826 89.1012 174.428 99.4582C176.03 109.815 175.131 120.405 171.806 130.344C168.481 140.282 162.827 149.282 155.315 156.59C147.804 163.898 138.653 169.303 128.627 172.354L141.378 214.257Z" fill="#00CCFF"/>
</svg>
